<svg width="31" height="25" viewBox="0 0 31 25" fill="none" xmlns="http://www.w3.org/2000/svg">
<path fill-rule="evenodd" clip-rule="evenodd" d="M17.0169 0.0410462C16.6555 0.199805 16.6613 0.138293 16.6613 3.80353V7.19067L17.6066 8.10176C18.1266 8.60286 18.7464 9.20407 18.9841 9.43785L19.4162 9.86284L9.9366 9.86407C-0.325851 9.86537 0.138439 9.84866 0.0414522 10.2206C0.0190144 10.3065 0.000426898 11.2974 2.85936e-05 12.4226C-0.000568863 14.35 0.00706531 14.4815 0.132332 14.6925C0.205421 14.8157 0.33082 14.9414 0.41088 14.9718C0.490939 15.0023 4.79243 15.0122 9.96972 14.9939C16.7099 14.9701 19.3831 14.9817 19.3831 15.0347C19.3831 15.0754 19.3268 15.1492 19.2579 15.1987C19.1891 15.2482 18.8523 15.5645 18.5096 15.9016C18.1668 16.2386 17.6331 16.7422 17.3236 17.0207C17.0141 17.2992 16.7389 17.5601 16.7121 17.6004C16.6853 17.6407 16.6629 19.2112 16.6623 21.0904L16.6613 24.5072L16.8128 24.7389C17.1448 25.2467 17.4958 25.0752 18.9851 23.677C19.1862 23.4883 20.3352 22.444 21.5385 21.3563C22.7418 20.2685 24.0287 19.1024 24.3982 18.7648C25.3523 17.8934 25.9472 17.3556 26.2535 17.0875C26.3993 16.9598 26.8623 16.5459 27.2824 16.1677C27.7025 15.7894 28.3029 15.2524 28.6166 14.9742C30.7066 13.1214 30.9995 12.8137 31 12.4704C31.0005 12.1559 30.7795 11.9007 29.5611 10.8082C28.8781 10.1958 27.5558 9.00385 26.6227 8.15932C25.6896 7.31478 24.5975 6.33338 24.1959 5.97842C23.7943 5.6234 23.3312 5.20597 23.1669 5.05069C23.0026 4.89548 22.3753 4.33034 21.7729 3.79494C21.1704 3.25947 20.13 2.31182 19.4607 1.68899C17.6468 0.000879162 17.6892 0.0356585 17.409 0.00551606C17.2716 -0.00928237 17.0952 0.00674384 17.0169 0.0410462Z" fill="#091B2D"/>
</svg>
