<svg width="61" height="39" viewBox="0 0 61 39" fill="none" xmlns="http://www.w3.org/2000/svg">
<path fill-rule="evenodd" clip-rule="evenodd" d="M33.4849 0.857989C32.7736 1.09814 32.7851 1.00509 32.7851 6.54946V11.6732L34.6453 13.0514C35.6685 13.8094 36.8881 14.7188 37.3558 15.0724L38.2062 15.7153L19.5527 15.7172C-0.64119 15.7191 0.272413 15.6939 0.0815673 16.2565C0.0374155 16.3864 0.000840025 17.8854 5.62648e-05 19.5875C-0.00111938 22.503 0.0139027 22.7019 0.260395 23.0211C0.404215 23.2074 0.650969 23.3976 0.808505 23.4436C0.966041 23.4897 9.43026 23.5046 19.6178 23.4771C32.8808 23.4411 38.1408 23.4586 38.1408 23.5387C38.1408 23.6003 38.0301 23.7119 37.8946 23.7868C37.7591 23.8617 37.0965 24.3401 36.4221 24.85C35.7475 25.3598 34.6974 26.1217 34.0884 26.543C33.4793 26.9643 32.9378 27.3589 32.8851 27.4198C32.8323 27.4808 32.7883 29.8565 32.7871 32.6992L32.7851 37.8676L33.0832 38.2182C33.7366 38.9863 34.4271 38.7269 37.3579 36.6119C37.7534 36.3265 40.0144 34.7467 42.3822 33.1013C44.7499 31.4559 47.2822 29.6919 48.0094 29.1813C49.8868 27.8631 51.0573 27.0495 51.6601 26.644C51.947 26.4509 52.8582 25.8247 53.6848 25.2526C54.5114 24.6804 55.6928 23.8681 56.3101 23.4473C60.4226 20.6446 60.9989 20.1791 61 19.6597C61.001 19.1839 60.5662 18.7979 58.1687 17.1454C56.8246 16.2191 54.2227 14.4159 52.3866 13.1384C50.5505 11.8609 48.4016 10.3763 47.6113 9.8394C46.821 9.30236 45.9099 8.67092 45.5866 8.43603C45.2633 8.20124 44.0288 7.34637 42.8434 6.53647C41.658 5.72646 39.6107 4.29297 38.2937 3.35082C34.7243 0.797228 34.8078 0.849839 34.2564 0.804243C33.986 0.781857 33.6389 0.8061 33.4849 0.857989Z" fill="#D0DAE4"/>
</svg>
