<svg width="142" height="103" viewBox="0 0 142 103" fill="none" xmlns="http://www.w3.org/2000/svg">
<path fill-rule="evenodd" clip-rule="evenodd" d="M77.9485 0.16911C76.2928 0.823199 76.3195 0.569767 76.3195 15.6706V29.6256L80.6496 33.3793C83.0315 35.4438 85.8707 37.9208 86.9593 38.8839L88.9389 40.6349L45.516 40.64C-1.49261 40.6453 0.634142 40.5765 0.189878 42.1089C0.0870983 42.4626 0.00195547 46.5453 0.000130977 51.1812C-0.00260576 59.1219 0.0323637 59.6636 0.606166 60.5332C0.94096 61.0406 1.51537 61.5584 1.88209 61.6837C2.24882 61.8093 21.9524 61.8501 45.6678 61.7751C76.5421 61.677 88.7869 61.7248 88.7869 61.9428C88.7869 62.1105 88.529 62.4145 88.2137 62.6185C87.8983 62.8225 86.3557 64.1256 84.7858 65.5144C83.2155 66.903 80.771 68.9779 79.3533 70.1254C77.9354 71.2728 76.675 72.3475 76.5521 72.5136C76.4293 72.6796 76.3268 79.1503 76.3241 86.8926L76.3195 100.97L77.0134 101.924C78.5345 104.016 80.1418 103.31 86.9642 97.5493C87.885 96.7719 93.1483 92.4692 98.6601 87.9878C104.172 83.5064 110.067 78.7018 111.76 77.3111C116.13 73.7209 118.855 71.5049 120.258 70.4004C120.926 69.8745 123.047 68.169 124.971 66.6108C126.895 65.0525 129.645 62.8399 131.083 61.6939C140.656 54.0603 141.998 52.7926 142 51.3779C142.002 50.0821 140.99 49.0307 135.409 44.5299C132.28 42.0069 126.223 37.0959 121.949 33.6164C117.675 30.1369 112.673 26.0935 110.833 24.6311C108.993 23.1684 106.872 21.4486 106.12 20.8089C105.367 20.1694 102.493 17.841 99.7338 15.6351C96.9743 13.429 92.2084 9.52471 89.1427 6.95865C80.8336 0.00362215 81.0279 0.146913 79.7444 0.0227262C79.1149 -0.0382434 78.307 0.0277846 77.9485 0.16911Z" fill="#C0D4E8"/>
</svg>
