<svg width="31" height="25" viewBox="0 0 31 25" fill="none" xmlns="http://www.w3.org/2000/svg">
<path fill-rule="evenodd" clip-rule="evenodd" d="M13.9831 24.959C14.3445 24.8002 14.3387 24.8617 14.3387 21.1965L14.3387 17.8093L13.3934 16.8982C12.8734 16.3971 12.2536 15.7959 12.0159 15.5622L11.5838 15.1372L21.0634 15.1359C31.3258 15.1346 30.8616 15.1513 30.9585 14.7794C30.981 14.6935 30.9996 13.7026 31 12.5774C31.0006 10.65 30.9929 10.5185 30.8677 10.3075C30.7946 10.1843 30.6692 10.0586 30.5891 10.0282C30.5091 9.99773 26.2076 9.98785 21.0303 10.0061C14.2901 10.0299 11.6169 10.0183 11.6169 9.96534C11.6169 9.92463 11.6732 9.85084 11.7421 9.80133C11.8109 9.75182 12.1477 9.43553 12.4904 9.09844C12.8332 8.76142 13.3669 8.25779 13.6764 7.97928C13.9859 7.70077 14.2611 7.43992 14.2879 7.39962C14.3147 7.35932 14.3371 5.78877 14.3377 3.90958L14.3387 0.492839L14.1872 0.261114C13.8552 -0.246672 13.5042 -0.0751614 12.0149 1.32298C11.8138 1.51168 10.6648 2.55603 9.46152 3.64375C8.25825 4.73147 6.97132 5.89761 6.60176 6.23518C5.64769 7.10658 5.05282 7.64444 4.74653 7.91252C4.60068 8.04018 4.13765 8.45413 3.71758 8.83234C3.2975 9.21056 2.69712 9.7476 2.38339 10.0258C0.29342 11.8786 0.00053103 12.1863 8.17154e-07 12.5296C-0.000531306 12.8442 0.220462 13.0993 1.43887 14.1918C2.1219 14.8042 3.44421 15.9961 4.3773 16.8407C5.3104 17.6852 6.40248 18.6666 6.8041 19.0216C7.20573 19.3766 7.66876 19.794 7.83306 19.9493C7.99736 20.1045 8.62469 20.6697 9.22712 21.2051C9.82956 21.7405 10.87 22.6882 11.5393 23.311C13.3532 24.9991 13.3108 24.9643 13.591 24.9945C13.7284 25.0093 13.9048 24.9933 13.9831 24.959Z" fill="#DCE6F5"/>
</svg>
